<svg id="visual" viewBox="0 0 900 600" width="900" height="600" xmlns="http://www.w3.org/2000/svg" xmlns:xlink="http://www.w3.org/1999/xlink" version="1.1"><rect width="900" height="600" fill="#a62a2a"></rect><g><g transform="translate(569 465)"><path d="M87.6 -88C106.2 -68.9 109 -34.5 105.1 -4C101.1 26.5 90.4 53.1 71.7 71.6C53.1 90 26.5 100.5 -2.3 102.8C-31.1 105.1 -62.2 99.2 -83.2 80.7C-104.3 62.2 -115.2 31.1 -113.2 2C-111.2 -27.1 -96.2 -54.1 -75.2 -73.3C-54.1 -92.4 -27.1 -103.6 3.7 -107.3C34.5 -111 68.9 -107.2 87.6 -88Z" fill="#F7760E"></path></g><g transform="translate(83 276)"><path d="M79.6 -83.5C97.5 -61.7 102.5 -30.9 101.4 -1.1C100.3 28.7 93.2 57.4 75.3 76.4C57.4 95.4 28.7 104.7 -1.8 106.4C-32.2 108.2 -64.4 102.4 -85.9 83.4C-107.3 64.4 -118 32.2 -114.8 3.2C-111.6 -25.8 -94.5 -51.6 -73.1 -73.4C-51.6 -95.2 -25.8 -112.9 2.5 -115.4C30.9 -117.9 61.7 -105.3 79.6 -83.5Z" fill="#F7760E"></path></g><g transform="translate(704 149)"><path d="M70.9 -75.5C88.5 -53.2 97.1 -26.6 99.5 2.4C102 31.5 98.2 63 80.6 81.2C63 99.4 31.5 104.2 1.8 102.5C-28 100.7 -55.9 92.3 -77.9 74.1C-100 55.9 -116 28 -116.1 -0.1C-116.2 -28.1 -100.3 -56.2 -78.3 -78.5C-56.2 -100.7 -28.1 -117.1 -0.7 -116.3C26.6 -115.6 53.2 -97.7 70.9 -75.5Z" fill="#F7760E"></path></g></g></svg>